<svg width="16" height="16" viewBox="0 0 16 16" fill="none" xmlns="http://www.w3.org/2000/svg">
    <path d="M8.48319 3.64502C7.73951 3.64502 7.28748 4.24288 7.28748 4.79699C7.28748 5.46775 7.79784 5.68648 8.24988 5.68648C9.08104 5.68648 9.43101 5.05946 9.43101 4.54909C9.43101 3.90749 8.92064 3.64502 8.48319 3.64502Z" fill="black" fill-opacity="0.84"/>
    <path d="M8.91304 6.54553L7.08645 6.84085C7.03054 7.28292 6.95011 7.73005 6.86842 8.18422C6.71074 9.06081 6.54834 9.96368 6.54834 10.9071C6.54834 11.8439 7.10858 12.3552 7.99455 12.3552C9.00639 12.3552 9.17956 11.7201 9.21882 11.1447C8.37999 11.2664 8.19573 10.8878 8.33282 9.99668C8.46991 9.10558 8.91304 6.54553 8.91304 6.54553Z" fill="black" fill-opacity="0.84"/>
    <path fill-rule="evenodd" clip-rule="evenodd" d="M8 0C3.58172 0 0 3.58172 0 8C0 12.4183 3.58172 16 8 16C12.4183 16 16 12.4183 16 8C16 3.58172 12.4183 0 8 0ZM1.5 8C1.5 4.41015 4.41015 1.5 8 1.5C11.5899 1.5 14.5 4.41015 14.5 8C14.5 11.5899 11.5899 14.5 8 14.5C4.41015 14.5 1.5 11.5899 1.5 8Z" fill="black" fill-opacity="0.84"/>
</svg>
